<?xml version="1.0" encoding="UTF-8" standalone="no"?>
<!-- Created with Inkscape (http://www.inkscape.org/) -->

<svg
   xmlns:dc="http://purl.org/dc/elements/1.1/"
   xmlns:cc="http://creativecommons.org/ns#"
   xmlns:rdf="http://www.w3.org/1999/02/22-rdf-syntax-ns#"
   xmlns:svg="http://www.w3.org/2000/svg"
   xmlns="http://www.w3.org/2000/svg"
   xmlns:xlink="http://www.w3.org/1999/xlink"
   xmlns:sodipodi="http://sodipodi.sourceforge.net/DTD/sodipodi-0.dtd"
   xmlns:inkscape="http://www.inkscape.org/namespaces/inkscape"
   width="151.51274"
   height="91.661186"
   id="svg2"
   version="1.1"
   inkscape:version="0.47 r22583"
   sodipodi:docname="logo.svg"
   inkscape:export-filename="/home/alan/mydocs/Hartley Consultants/Hartley Web/Logo/logo.png"
   inkscape:export-xdpi="73.650002"
   inkscape:export-ydpi="73.650002">
  <defs
     id="defs4">
    <inkscape:perspective
       sodipodi:type="inkscape:persp3d"
       inkscape:vp_x="0 : 526.18109 : 1"
       inkscape:vp_y="0 : 1000 : 0"
       inkscape:vp_z="744.09448 : 526.18109 : 1"
       inkscape:persp3d-origin="372.04724 : 350.78739 : 1"
       id="perspective10" />
    <linearGradient
       id="linearGradient4630">
      <stop
         id="stop4632"
         offset="0"
         style="stop-color:white;stop-opacity:0;" />
      <stop
         id="stop4634"
         offset="1"
         style="stop-color:white;stop-opacity:1;" />
    </linearGradient>
    <inkscape:perspective
       id="perspective3101"
       inkscape:persp3d-origin="285.65814 : 213.78939 : 1"
       inkscape:vp_z="571.31628 : 320.68408 : 1"
       inkscape:vp_y="0 : 1000 : 0"
       inkscape:vp_x="0 : 320.68408 : 1"
       sodipodi:type="inkscape:persp3d" />
    <linearGradient
       y2="239.25"
       x2="342.8125"
       y1="239.25"
       x1="75.40625"
       gradientTransform="translate(23.21519,57.15122)"
       gradientUnits="userSpaceOnUse"
       id="linearGradient3708"
       xlink:href="#linearGradient8535"
       inkscape:collect="always" />
    <linearGradient
       y2="239.25"
       x2="342.8125"
       y1="239.25"
       x1="75.40625"
       gradientTransform="translate(23.21519,57.15122)"
       gradientUnits="userSpaceOnUse"
       id="linearGradient3706"
       xlink:href="#linearGradient8527"
       inkscape:collect="always" />
    <linearGradient
       y2="253.40451"
       x2="406.11896"
       y1="253.40451"
       x1="171.90022"
       gradientTransform="translate(-23.98049,-35.78795)"
       gradientUnits="userSpaceOnUse"
       id="linearGradient3703"
       xlink:href="#linearGradient3653"
       inkscape:collect="always" />
    <linearGradient
       y2="253.40451"
       x2="406.11896"
       y1="253.40451"
       x1="171.90022"
       gradientTransform="translate(-23.98049,-35.78795)"
       gradientUnits="userSpaceOnUse"
       id="linearGradient3701"
       xlink:href="#linearGradient8495"
       inkscape:collect="always" />
    <linearGradient
       y2="253.40451"
       x2="406.11896"
       y1="253.40451"
       x1="171.90022"
       gradientTransform="translate(-26.86523,-37.75652)"
       gradientUnits="userSpaceOnUse"
       id="linearGradient3698"
       xlink:href="#linearGradient8495"
       inkscape:collect="always" />
    <linearGradient
       y2="253.40451"
       x2="406.11896"
       y1="253.40451"
       x1="171.90022"
       gradientTransform="translate(-26.86523,-37.75652)"
       gradientUnits="userSpaceOnUse"
       id="linearGradient3696"
       xlink:href="#linearGradient3653"
       inkscape:collect="always" />
    <linearGradient
       y2="239.25"
       x2="342.8125"
       y1="239.25"
       x1="75.40625"
       gradientTransform="translate(20.33045,55.18265)"
       gradientUnits="userSpaceOnUse"
       id="linearGradient3694"
       xlink:href="#linearGradient8535"
       inkscape:collect="always" />
    <linearGradient
       y2="239.25"
       x2="342.8125"
       y1="239.25"
       x1="75.40625"
       gradientTransform="translate(20.33045,55.18265)"
       gradientUnits="userSpaceOnUse"
       id="linearGradient3692"
       xlink:href="#linearGradient8527"
       inkscape:collect="always" />
    <linearGradient
       y2="239.25"
       x2="342.8125"
       y1="239.25"
       x1="75.40625"
       gradientTransform="translate(20.33045,55.18265)"
       gradientUnits="userSpaceOnUse"
       id="linearGradient2756"
       xlink:href="#linearGradient8535"
       inkscape:collect="always" />
    <linearGradient
       y2="239.25"
       x2="342.8125"
       y1="239.25"
       x1="75.40625"
       gradientTransform="translate(20.33045,55.18265)"
       gradientUnits="userSpaceOnUse"
       id="linearGradient2754"
       xlink:href="#linearGradient8527"
       inkscape:collect="always" />
    <linearGradient
       y2="253.40451"
       x2="406.11896"
       y1="253.40451"
       x1="171.90022"
       gradientTransform="translate(-26.86523,-37.75652)"
       gradientUnits="userSpaceOnUse"
       id="linearGradient2751"
       xlink:href="#linearGradient8495"
       inkscape:collect="always" />
    <linearGradient
       y2="253.40451"
       x2="406.11896"
       y1="253.40451"
       x1="171.90022"
       gradientTransform="translate(-26.86523,-37.75652)"
       gradientUnits="userSpaceOnUse"
       id="linearGradient2749"
       xlink:href="#linearGradient3653"
       inkscape:collect="always" />
    <radialGradient
       r="132.60661"
       fy="414.23291"
       fx="237.79366"
       cy="414.23291"
       cx="237.79366"
       gradientTransform="matrix(1,0,0,0.12392,0,362.9011)"
       gradientUnits="userSpaceOnUse"
       id="radialGradient8599"
       xlink:href="#linearGradient8551"
       inkscape:collect="always" />
    <linearGradient
       id="linearGradient8495">
      <stop
         id="stop8497"
         offset="0"
         style="stop-color:#fca62a;stop-opacity:1;" />
      <stop
         id="stop8499"
         offset="1"
         style="stop-color:#ce5c00;stop-opacity:1;" />
    </linearGradient>
    <linearGradient
       id="linearGradient8527">
      <stop
         id="stop8529"
         offset="0"
         style="stop-color:#2e8820;stop-opacity:1;" />
      <stop
         id="stop8531"
         offset="1"
         style="stop-color:#79cf71;stop-opacity:1;" />
    </linearGradient>
    <linearGradient
       id="linearGradient8535">
      <stop
         style="stop-color:#76cf71;stop-opacity:1;"
         offset="0"
         id="stop8537" />
      <stop
         style="stop-color:#288820;stop-opacity:1;"
         offset="1"
         id="stop8539" />
    </linearGradient>
    <linearGradient
       id="linearGradient8551">
      <stop
         id="stop8553"
         offset="0"
         style="stop-color:#1d1d1d;stop-opacity:1;" />
      <stop
         style="stop-color:#2b2121;stop-opacity:0.627451;"
         offset="0.5"
         id="stop8595" />
      <stop
         id="stop8555"
         offset="1"
         style="stop-color:#f9f9f9;stop-opacity:0;" />
    </linearGradient>
    <linearGradient
       id="linearGradient3653">
      <stop
         style="stop-color:#ce5c00;stop-opacity:1;"
         offset="0"
         id="stop3655" />
      <stop
         style="stop-color:#fca62a;stop-opacity:1;"
         offset="1"
         id="stop3657" />
    </linearGradient>
    <linearGradient
       id="linearGradient3823">
      <stop
         style="stop-color:#fca62a;stop-opacity:1;"
         offset="0"
         id="stop3825" />
      <stop
         style="stop-color:#ce5c00;stop-opacity:1;"
         offset="1"
         id="stop3827" />
    </linearGradient>
    <inkscape:perspective
       id="perspective3235"
       inkscape:persp3d-origin="155 : 100 : 1"
       inkscape:vp_z="310 : 150 : 1"
       inkscape:vp_y="0 : 1000 : 0"
       inkscape:vp_x="0 : 150 : 1"
       sodipodi:type="inkscape:persp3d" />
    <linearGradient
       inkscape:collect="always"
       xlink:href="#linearGradient8527"
       id="linearGradient4081"
       gradientUnits="userSpaceOnUse"
       gradientTransform="translate(-217.91428,698.49691)"
       x1="75.40625"
       y1="239.25"
       x2="342.8125"
       y2="239.25" />
    <linearGradient
       inkscape:collect="always"
       xlink:href="#linearGradient8535"
       id="linearGradient4083"
       gradientUnits="userSpaceOnUse"
       gradientTransform="translate(-217.91428,698.49691)"
       x1="75.40625"
       y1="239.25"
       x2="342.8125"
       y2="239.25" />
    <linearGradient
       inkscape:collect="always"
       xlink:href="#linearGradient3823"
       id="linearGradient4085"
       gradientUnits="userSpaceOnUse"
       gradientTransform="translate(-265.10996,605.55774)"
       x1="171.90022"
       y1="253.40451"
       x2="406.11896"
       y2="253.40451" />
    <linearGradient
       inkscape:collect="always"
       xlink:href="#linearGradient3653"
       id="linearGradient4087"
       gradientUnits="userSpaceOnUse"
       gradientTransform="translate(-265.10996,605.55774)"
       x1="171.90022"
       y1="253.40451"
       x2="406.11896"
       y2="253.40451" />
    <radialGradient
       inkscape:collect="always"
       xlink:href="#linearGradient8551"
       id="radialGradient4089"
       gradientUnits="userSpaceOnUse"
       gradientTransform="matrix(1,0,0,0.12392,0,362.9011)"
       cx="237.79366"
       cy="414.23291"
       fx="237.79366"
       fy="414.23291"
       r="132.60661" />
  </defs>
  <sodipodi:namedview
     id="base"
     pagecolor="#ffffff"
     bordercolor="#666666"
     borderopacity="1.0"
     inkscape:pageopacity="0.0"
     inkscape:pageshadow="2"
     inkscape:zoom="2.8"
     inkscape:cx="86.896575"
     inkscape:cy="56.53621"
     inkscape:document-units="px"
     inkscape:current-layer="layer1"
     showgrid="false"
     showguides="true"
     inkscape:guide-bbox="true"
     inkscape:window-width="1280"
     inkscape:window-height="973"
     inkscape:window-x="0"
     inkscape:window-y="25"
     inkscape:window-maximized="1" />
  <metadata
     id="metadata7">
    <rdf:RDF>
      <cc:Work
         rdf:about="">
        <dc:format>image/svg+xml</dc:format>
        <dc:type
           rdf:resource="http://purl.org/dc/dcmitype/StillImage" />
        <dc:title />
      </cc:Work>
    </rdf:RDF>
  </metadata>
  <g
     inkscape:label="Layer 1"
     inkscape:groupmode="layer"
     id="layer1"
     transform="translate(0.24746156,-961.45353)"
     style="display:inline">
    <rect
       style="fill:#000000;stroke:#ffffff;stroke-width:1.00312817;stroke-opacity:1;display:inline"
       id="rect4061"
       width="150.86676"
       height="91.015205"
       x="0.2541025"
       y="961.95508" />
    <path
       style="fill:none;stroke:#000000;stroke-width:0.5;stroke-linecap:butt;stroke-linejoin:miter;stroke-miterlimit:4;stroke-opacity:1;stroke-dasharray:none;display:inline"
       d="m -19.548727,992.07617 c 0.08892,-0.006 0.08892,-0.006 0,0 z"
       id="path1902" />
    <g
       style="font-size:18px;font-style:normal;font-variant:normal;font-weight:normal;font-stretch:normal;text-align:start;line-height:125%;writing-mode:lr-tb;text-anchor:start;fill:#00ff00;fill-opacity:1;stroke:none;display:inline;font-family:ZeroHour;-inkscape-font-specification:ZeroHour"
       id="text4138"
       transform="translate(8.5714286,957.71932)">
      <path
         d="m 21.979572,26.31706 -2.16,0 0,-5.76 -12.2399999,0 0,5.76 -2.16,0 0,-13.68 2.16,0 0,5.76 12.2399999,0 0,-5.76 2.16,0 0,13.68"
         id="path4149" />
      <path
         d="m 40.103885,26.31706 -2.16,0 0,-5.76 -12.24,0 c -3e-6,-0.08399 -3e-6,1.836004 0,5.76 l -2.16,0 0,-6.876 c -1e-6,-2.135991 0.587998,-3.803989 1.764,-5.004 1.187996,-1.199986 2.867994,-1.799986 5.04,-1.8 l 9.756,0 0,13.68 m -2.16,-11.52 c -0.852015,1.2e-5 -1.926013,-0.006 -3.222,-0.018 -1.284011,-0.02399 -2.14801,-0.03599 -2.592,-0.036 -2.400007,1.2e-5 -3.984006,0.204012 -4.752,0.612 -0.864004,0.456011 -1.386003,1.47001 -1.566,3.042 l 12.132,0 0,-3.6"
         id="path4151" />
      <path
         d="m 58.054103,25.07506 -1.35,1.674 -7.758,-6.192 -5.742,0 c -2e-6,-0.08399 -2e-6,1.836004 0,5.76 l -2.16,0 0,-6.876 c 0,-2.135991 0.593999,-3.803989 1.782,-5.004 1.187997,-1.199986 2.861995,-1.799986 5.022,-1.8 l 9.756,0 0,7.92 -5.22,0 5.67,4.518 m -2.61,-6.678 0,-3.6 c -0.852013,1.2e-5 -1.926012,-0.006 -3.222,-0.018 -1.28401,-0.02399 -2.148009,-0.03599 -2.592,-0.036 -2.400006,1.2e-5 -3.978005,0.204012 -4.734,0.612 -0.864003,0.456011 -1.386002,1.47001 -1.566,3.042 l 12.114,0"
         id="path4153" />
      <path
         d="m 75.712947,14.79706 -7.2,0 0,11.52 -2.16,0 0,-11.52 c -1.476006,1.2e-5 -2.580005,0.204012 -3.312,0.612 -0.672004,0.384011 -1.134003,1.02601 -1.386,1.926 -0.192003,0.636009 -0.330002,1.728008 -0.414,3.276 l -2.142,-0.126 c 0.144,-2.663991 0.653999,-4.577989 1.53,-5.742 1.043997,-1.403987 2.819995,-2.105986 5.328,-2.106 l 9.756,0 0,2.16"
         id="path4155" />
      <path
         d="m 92.558697,26.31706 -16.56,0 0,-6.876 c -1e-6,-2.49599 0.731999,-4.277988 2.196,-5.346 1.211996,-0.875986 3.143994,-1.379986 5.796,-1.512 l -0.018,2.142 c -2.232006,0.132012 -3.768005,0.552012 -4.608,1.26 -0.708003,0.61201 -1.104003,1.638009 -1.188,3.078 -0.012,1.704006 -0.018,3.402004 -0.018,5.094 l 14.4,0 0,2.16"
         id="path4157" />
      <path
         d="m 110.12051,26.31706 -16.56,0 0,-6.876 c -10e-7,-2.135991 0.593998,-3.803989 1.782,-5.004 1.187996,-1.199986 2.861994,-1.799986 5.022,-1.8 l 9.756,0 0,2.16 -9.684,0 c -1.536006,1.2e-5 -2.664005,0.276012 -3.384,0.828 -0.720004,0.540011 -1.146003,1.46401 -1.278,2.772 l 14.346,0 0,2.16 -14.4,0 0,3.6 14.4,0 0,2.16"
         id="path4159" />
      <path
         d="m 128.11348,12.63706 0,6.876 c -2e-5,2.136005 -0.59402,3.804003 -1.782,5.004 -1.17602,1.200001 -2.85001,1.8 -5.022,1.8 l -9.756,0 0,-2.16 9.684,0 c 1.53599,3e-6 2.66398,-0.269997 3.384,-0.81 0.71998,-0.551996 1.14598,-1.481995 1.278,-2.79 l -14.346,0 0,-7.92 2.16,0 0,5.76 12.24,0 0,-5.76 2.16,0"
         id="path4161" />
    </g>
    <g
       style="font-size:18px;font-style:normal;font-variant:normal;font-weight:normal;font-stretch:normal;text-align:start;line-height:125%;writing-mode:lr-tb;text-anchor:start;fill:#00ff00;fill-opacity:1;stroke:none;display:inline;font-family:ZeroHour;-inkscape-font-specification:ZeroHour"
       id="text4142"
       transform="translate(173.92857,947.71932)">
      <flowRoot
         xml:space="preserve"
         id="flowRoot2857"
         style="font-size:18px;font-style:normal;font-variant:normal;font-weight:normal;font-stretch:normal;text-align:start;line-height:100%;writing-mode:lr-tb;text-anchor:start;fill:#00ff00;fill-opacity:1;stroke:none;font-family:ZeroHour;-inkscape-font-specification:ZeroHour"
         transform="translate(-149.53317,8.73421)"><flowRegion
           id="flowRegion2859"><rect
             id="rect2861"
             width="81.071426"
             height="35.714287"
             x="53.214287"
             y="48.446899"
             style="font-size:18px;font-style:normal;font-variant:normal;font-weight:normal;font-stretch:normal;text-align:start;line-height:100%;writing-mode:lr-tb;text-anchor:start;fill:#00ff00;font-family:ZeroHour;-inkscape-font-specification:ZeroHour" /></flowRegion><flowPara
           id="flowPara2863">Chat</flowPara></flowRoot>    </g>
    <path
       sodipodi:type="arc"
       style="fill:url(#radialGradient4089);fill-opacity:1;stroke:#000000;stroke-opacity:1"
       id="path8549"
       sodipodi:cx="237.79366"
       sodipodi:cy="414.23291"
       sodipodi:rx="129.60661"
       sodipodi:ry="13.432618"
       d="m 367.40027,414.23291 a 129.60661,13.432618 0 1 1 -259.21323,0 129.60661,13.432618 0 1 1 259.21323,0 z"
       transform="matrix(0.37902697,0,0,0.56231849,-35.511386,812.20428)" />
    <g
       id="g4077"
       transform="matrix(0.20030123,0,0,0.20030123,32.107933,836.4758)">
      <path
         id="path7605"
         d="m -8.78928,845.90316 c -72.14405,0 -130.71875,29.27173 -130.71875,65.34375 0,25.90179 30.20376,48.30428 73.9375,58.875 -5.77763,34.49779 -44.875,59.46879 -44.875,59.46879 0,0 69.93612,-14.0954 84.125,-53.59379 5.73386,0.38483 11.58775,0.59375 17.53125,0.59375 72.14405,0 130.6875,-29.27172 130.6875,-65.34375 0,-36.07202 -58.54345,-65.34375 -130.6875,-65.34375 z"
         style="fill:url(#linearGradient4081);fill-opacity:1;stroke:url(#linearGradient4083);stroke-width:6;stroke-linecap:butt;stroke-linejoin:miter;stroke-miterlimit:4;stroke-opacity:1;stroke-dasharray:none;stroke-dashoffset:0" />
      <path
         id="path7608"
         d="m 23.85923,778.79758 c 62.97003,0 114.09622,25.54946 114.09622,57.03448 0,22.60805 -26.36297,42.16178 -64.53542,51.3883 5.04293,30.11099 39.16858,51.90656 39.16858,51.90656 0,0 -61.04286,-12.30296 -73.42745,-46.77864 -5.00473,0.3359 -10.11422,0.51825 -15.30193,0.51825 -62.97004,0 -114.06896,-25.54945 -114.06896,-57.03447 0,-31.48502 51.09892,-57.03448 114.06896,-57.03448 z"
         style="fill:url(#linearGradient4085);fill-opacity:1;stroke:url(#linearGradient4087);stroke-width:6;stroke-linecap:butt;stroke-linejoin:miter;stroke-miterlimit:4;stroke-opacity:1;stroke-dasharray:none;stroke-dashoffset:0" />
    </g>
  </g>
</svg>
